<svg width="801" height="803" viewBox="0 0 801 803" fill="none" xmlns="http://www.w3.org/2000/svg">
<path d="M378 1.59999C320 6.09999 273.8 18.3 225.5 42C180.9 63.7 143.8 91.6 105.6 132C70.7 168.8 39.6 220.9 22.3 271.5C10.2 306.7 4.20005 335.6 1.50005 372.3L0.800049 381L106.1 380.8L211.3 380.5L213.1 371.5C217.1 350.3 222.6 333.8 231.1 316.6C262.1 254.2 324 214.2 394 211.3C449.3 209 506.9 233.8 542.8 275.4C566.5 302.8 579.3 329.3 587.5 367.2C588.9 373.7 590 379.1 590 379.3C590 380 764.8 380.7 781.7 380.1C791.2 379.8 799.3 379 799.9 378.5C801 377.4 798.4 353.8 795.1 334.5C783.3 266.6 755.3 204.4 712.5 151C699.4 134.6 673.8 108.5 657.7 95.2C618.3 62.4 575.2 38.3 527 22C495.9 11.5 468.1 5.99999 429.5 2.59999C402.8 0.199994 396.7 0.0999943 378 1.59999Z" fill="#7A7A75" fill-opacity="0.31"/>
<path d="M381.5 255.7C346.7 261.3 317.5 276.7 293.6 302.1C274 322.9 259.2 352 256 376C254.5 386.8 254.5 416.1 255.9 426.6C261.9 470.2 294.1 512.9 336.3 533.5C360.5 545.2 368.3 547 397.6 547.7C422.5 548.3 428.3 547.6 445.8 541.6C472.8 532.4 493 518.5 513.6 495.2C528 478.8 541.6 450.7 545.1 430.1C546.5 421.8 546.5 387.7 545 376.8C541.1 347.7 527.5 321.5 504 298C484.1 278 459.5 264.6 430.5 257.9C423.6 256.3 417.2 255.8 403 255.5C392.8 255.3 383.2 255.4 381.5 255.7ZM420.5 341.4C441.8 348.6 458.5 367.5 463.4 389.7C465.4 398.7 465.4 404 463.5 413.8C459.6 433.4 446.2 450.4 427.6 459.6L417.7 464.5H400.6H383.5L376.8 461.3C356.3 451.6 344.2 437.3 339 416.6C332.4 390.6 343.6 363.2 367.1 347.9C378.9 340.2 387 338 402 338.4C410.2 338.6 414.2 339.3 420.5 341.4Z" fill="#7A7A75" fill-opacity="0.31"/>
<path d="M1 425.2C1 428.7 3.2 451.4 4.1 458C12.6 519.2 40.4 587.6 77.4 638.3C92.9 659.7 128 696.3 150.1 714.2C211 763.5 286 793.9 365 801.1C381.8 802.6 418.4 802.6 435 801.1C504.2 794.8 569.9 771.2 627.5 731.9C656.9 711.9 689.3 681.4 713.9 650.5C762 590.3 790.7 519.6 799.5 439.7C800.3 432 801 425.4 801 424.9C801 424.4 758.3 424.1 695.3 424.2L589.6 424.5L586.4 440C584.7 448.5 581.8 459.5 580 464.5C563.3 511.7 526.4 553.2 482.8 574C469.7 580.2 448.3 587.4 436 589.7C428.5 591 420.8 591.4 399.5 591.4C375.3 591.4 371.5 591.2 362.6 589.2C321.5 580.1 282.6 556.9 256.9 526.1C233.5 498.2 219.6 468 212.3 429L211.5 424.5L106.2 424.2C22.4 424 1 424.2 1 425.2Z" fill="#7A7A75" fill-opacity="0.31"/>
</svg>
